# xmcd
#
# Track frame offsets:
#	150
#	16129
#	30647
#	47805
#	62224
#	76807
#	92730
#	109572
#	125043
#	142981
#	160382
#	176324
#	191325
#	205778
#	221025
#	235400
#	248320
#	263447
#	276737
#	293447
#	308414
#
# Disc length: 4340 seconds
# Revision: 3
# Processed by: cddbd v1.5.2PL0 Copyright (c) Steve Scherf et al.
# Submitted via: dBpowerAMP V12.0
#
DISCID=1910f215
DTITLE=Various Artist - So Country 2019
DYEAR=2019
DGENRE=Country Sampler
TTITLE0=Keith Urban Featuring Shy Carter - My Wave
TTITLE1=Luke Combs - Beautiful Crazy
TTITLE2=Carrie Underwood - Love Wins
TTITLE3=Kelsea Ballerini - Miss Me More
TTITLE4=Jason Aldean - Girl Like You
TTITLE5=Tim McGraw - Neon Church
TTITLE6=The Wolfe Brothers - Country Heart
TTITLE7=Kane Brown - Homesick
TTITLE8=Dierks Bentley Featuring Brothers Osborne - Burning Man
TTITLE9=Miranda Lambert - Highway Vagabond
TTITLE10=Mitchell Tenpenny - Drunk Me
TTITLE11=Maren Morris - Second Wind
TTITLE12=Kip Moore - Tennessee Boy
TTITLE13=O'Shea - Dream Believe
TTITLE14=Russell Dickerson - Every Little Thing
TTITLE15=Travis Collins - Road Warriors
TTITLE16=Missy Lancaster - Never In Love
TTITLE17=Seaforth - Talk To Me
TTITLE18=Pistol Annies - Best Years Of My Life
TTITLE19=Cam - Road To Happiness
TTITLE20=Imogen Clark - Late Night Girl
EXTD=
EXTT0=
EXTT1=
EXTT2=
EXTT3=
EXTT4=
EXTT5=
EXTT6=
EXTT7=
EXTT8=
EXTT9=
EXTT10=
EXTT11=
EXTT12=
EXTT13=
EXTT14=
EXTT15=
EXTT16=
EXTT17=
EXTT18=
EXTT19=
EXTT20=
PLAYORDER=
